<?xml version="1.0" encoding="utf-8"?>
<!-- Generator: Adobe Illustrator 26.0.3, SVG Export Plug-In . SVG Version: 6.00 Build 0)  -->
<svg version="1.1" id="Calque_1" xmlns="http://www.w3.org/2000/svg" xmlns:xlink="http://www.w3.org/1999/xlink" x="0px" y="0px"
	 viewBox="0 0 88 88" style="enable-background:new 0 0 88 88;" xml:space="preserve">
<style type="text/css">
	.st0{fill:#9300E9;stroke:#000000;stroke-miterlimit:10;}
</style>
<g id="Paint_Bucket">
	<path class="st0" d="M67.5,41.7c3.2,2,5.7,3,7.5,3c0.8,0,1.6-0.2,2.1-0.8c1.5-1.5,0.8-4.8-2.2-9.6c-3.4-5.2-7.4-10.1-11.9-14.4
		C55.3,12.2,42.6,2.1,39,5.8c-3.6,3.6,6.5,16.4,14.1,24C57.5,34.3,62.3,38.3,67.5,41.7z"/>
	<path class="st0" d="M66.5,43.4c-5.3-3.5-10.3-7.6-14.8-12.2c-4.3-4.2-8.2-8.9-11.6-13.9c-2.2-3.3-3.5-6.1-3.8-8.3l-4.5,5.7
		c-1.5-1-3.1-1.9-4.8-2.6C16.9,7.9,6.1,10.5,2.9,18c-2.3,5.4-0.1,12.1,5.7,17.1c1.4,1.2,3,2.3,4.6,3.2l-1.8,2.3
		c-3.2,4-2.8,9.7,0.8,13.4L29,70.8c3.6,3.6,9.4,3.9,13.4,0.8l31.4-24.9C71.2,46,68.7,44.9,66.5,43.4z M41.6,34.6
		c-1.2,2.8-4.4,4.1-7.2,2.9c-0.2-0.1-0.4-0.2-0.6-0.3c-5.8,3.6-13.5,2.4-19.3-0.6l0,0c-1.6-0.8-3.2-1.9-4.6-3.1
		c-5.1-4.4-7.1-10.2-5.1-14.8c2.8-6.5,12.4-8.6,21.5-4.8c1.5,0.6,3,1.4,4.3,2.4L15.7,35.1c4.5,2.3,11.5,3.6,16.5,0.8
		c-0.3-0.4-0.6-0.8-0.8-1.3c-0.6-1.3-0.6-2.9,0-4.2c1.2-2.8,4.4-4.1,7.2-2.9S42.7,31.8,41.6,34.6z"/>
	<path class="st0" d="M37.9,29.3c-1.8-0.8-3.8,0.1-4.6,1.9l0,0c-0.5,1.2-0.3,2.6,0.6,3.6c0.9-0.8,1.6-1.7,2.1-2.8
		c0.2-0.5,0.8-0.7,1.3-0.5s0.7,0.8,0.5,1.3c-0.5,1.2-1.2,2.3-2.2,3.1c1.9,0.5,3.8-0.6,4.3-2.4C40.3,31.7,39.5,30,37.9,29.3
		L37.9,29.3z"/>
	<path class="st0" d="M76.7,57.3c-0.4-0.4-1.1-0.4-1.5,0l0,0C74.3,58.4,66,67.8,66,73c0,5.5,4.5,10,10,10s10-4.5,10-10
		C86,67.8,77.7,58.4,76.7,57.3z M76,79c-3.3,0-6-2.7-6-6c0-0.6,0.4-1,1-1s1,0.4,1,1c0,2.2,1.8,4,4,4c0.6,0,1,0.4,1,1S76.5,79,76,79z
		"/>
</g>
</svg>
