<?xml version="1.0" encoding="utf-8"?>
<!-- Generator: Adobe Illustrator 26.0.3, SVG Export Plug-In . SVG Version: 6.00 Build 0)  -->
<svg version="1.1" id="Calque_1" xmlns="http://www.w3.org/2000/svg" xmlns:xlink="http://www.w3.org/1999/xlink" x="0px" y="0px"
	 viewBox="0 0 88 88" style="enable-background:new 0 0 88 88;" xml:space="preserve">
<style type="text/css">
	.st0{fill:#FFFF00;}
</style>
<g id="Highlighter">
	<polygon points="46.8,69.2 21.8,44.2 20.1,45.6 45.4,70.9 	"/>
	<path d="M57.7,30.7l-13,13c-0.7,0.7-0.7,1.9,0,2.6c0.7,0.7,1.9,0.7,2.6,0l13-13c0.7-0.7,0.7-1.9,0-2.6C59.6,30,58.4,30,57.7,30.7z"
		/>
	<path d="M83.7,23.3l-16-16c-0.4-0.4-0.9-0.4-1.3-0.1l-3.1,2.6l17.9,17.9l2.6-3.1C84.1,24.2,84.1,23.7,83.7,23.3z"/>
	<path d="M23.3,42.9l24.7,24.7l31.8-38.3L61.7,11.1L23.3,42.9z M61.7,34.7l-13,13c-1.5,1.5-3.9,1.5-5.4,0c-1.5-1.5-1.5-3.9,0-5.4
		l13-13c1.5-1.5,3.9-1.5,5.4,0C63.2,30.8,63.2,33.2,61.7,34.7z"/>
	<path d="M23.3,75.7c0.4,0.4,1,0.4,1.4,0c0,0,0,0,0,0l2.7-2.7l16.2-1L19,47.4l-1,16.2l-2.7,2.7c-0.4,0.4-0.4,1,0,1.4c0,0,0,0,0,0
		L23.3,75.7z"/>
	<path class="st0" d="M61,79H19.4l2.2-2.2l-7.4-7.4l-9.9,9.9C4,79.6,3.9,80,4.1,80.4C4.2,80.8,4.6,81,5,81h56c0.6,0,1-0.4,1-1
		S61.6,79,61,79z"/>
	<path class="st0" d="M69,79h-4c-0.6,0-1,0.4-1,1s0.4,1,1,1h4c0.6,0,1-0.4,1-1S69.6,79,69,79z"/>
</g>
</svg>
 